<svg width="37" height="47" viewBox="0 0 37 47" fill="none" xmlns="http://www.w3.org/2000/svg">
<path d="M26.3707 12.0638L27.3647 13.3053C27.4759 13.4469 27.5306 13.5246 27.5287 13.5384C27.5356 13.5957 27.4619 13.688 27.3077 13.8153C27.2195 13.8811 27.027 14.0245 26.7304 14.2456C24.7955 15.6501 22.9012 16.9122 21.0476 18.0318C14.203 22.1352 7.68002 24.0665 1.47865 23.8257C1.36325 23.8244 1.24877 23.8163 1.13522 23.8011C1.06609 23.7779 0.948738 23.6284 0.783172 23.3529C0.765836 23.266 0.797584 23.2174 0.878417 23.2071C0.886435 23.2011 1.06538 23.1862 1.41526 23.1623C3.21341 23.0565 5.00127 22.7839 6.77883 22.3444C11.3471 21.234 16.2869 18.9053 21.5984 15.3584C21.8994 15.159 22.2013 14.9527 22.5042 14.7395C23.5275 14.0517 24.6205 13.2746 25.7831 12.4081C26.1199 12.1571 26.3158 12.0424 26.3707 12.0638Z" fill="white"/>
<path d="M17.4821 34.5364L15.9241 34.2192C15.748 34.1816 15.6561 34.1569 15.6484 34.145C15.6056 34.1052 15.5995 33.9863 15.6302 33.7884C15.6524 33.6807 15.701 33.4456 15.7759 33.0833C16.2888 30.749 16.8655 28.551 17.5059 26.4893C19.8908 18.9001 23.4689 13.1964 28.2401 9.37825C28.3268 9.30472 28.4173 9.23713 28.5117 9.17548C28.5785 9.14883 28.7643 9.18849 29.0692 9.29445C29.1393 9.35032 29.1478 9.40836 29.0945 9.46856C29.0925 9.47835 28.9692 9.60542 28.7247 9.84977C27.457 11.0925 26.3071 12.4575 25.2748 13.9448C22.6093 17.7522 20.4707 22.7406 18.859 28.91C18.7666 29.2584 18.6781 29.6127 18.5935 29.9729C18.2859 31.165 17.9854 32.471 17.692 33.891C17.607 34.3023 17.5371 34.5174 17.4821 34.5364Z" fill="white"/>
</svg>
